<svg width="47" height="23" viewBox="0 0 47 23" fill="none" xmlns="http://www.w3.org/2000/svg">
<rect x="1.50464" y="7.11111" width="43.3627" height="15.3333" rx="2" fill="#196B44"/>
<rect x="2.21558" y="7.96295" width="41.941" height="6.81482" rx="1" fill="#EDD925"/>
<path d="M6.75521 20.6667V17.1657H7.722C8.95573 17.1657 9.57259 17.7345 9.57259 18.8722C9.57259 19.4126 9.40088 19.8472 9.05745 20.1759C8.71566 20.5031 8.25749 20.6667 7.68294 20.6667H6.75521ZM7.16536 17.5368V20.2956H7.68782C8.14681 20.2956 8.50407 20.1727 8.7596 19.9269C9.01514 19.6811 9.1429 19.3328 9.1429 18.882C9.1429 17.9852 8.66601 17.5368 7.71224 17.5368H7.16536ZM14.0415 20.6667H12.1861V17.1657H13.9634V17.5368H12.5962V18.7013H13.8609V19.07H12.5962V20.2956H14.0415V20.6667ZM18.4568 20.6667H16.6404V17.1657H17.0505V20.2956H18.4568V20.6667ZM21.329 20.6667H20.9189V17.1657H21.329V20.6667ZM26.7794 17.1657L25.483 20.6667H25.0314L23.7618 17.1657H24.2184L25.1876 19.9416C25.2186 20.0311 25.2422 20.1344 25.2584 20.2516H25.2682C25.2812 20.154 25.3081 20.049 25.3488 19.9367L26.3375 17.1657H26.7794ZM31.0628 20.6667H29.2074V17.1657H30.9847V17.5368H29.6175V18.7013H30.8822V19.07H29.6175V20.2956H31.0628V20.6667ZM36.1714 20.6667H35.6831L35.0972 19.6852C35.0435 19.5941 34.9914 19.5168 34.9409 19.4533C34.8905 19.3882 34.8384 19.3353 34.7847 19.2946C34.7326 19.2539 34.6756 19.2246 34.6138 19.2067C34.5536 19.1872 34.4852 19.1774 34.4087 19.1774H34.0718V20.6667H33.6617V17.1657H34.7066C34.8596 17.1657 35.0004 17.1852 35.1289 17.2243C35.2591 17.2617 35.3714 17.3195 35.4659 17.3976C35.5619 17.4757 35.6367 17.5734 35.6905 17.6906C35.7442 17.8061 35.771 17.942 35.771 18.0983C35.771 18.2204 35.7523 18.3327 35.7149 18.4352C35.6791 18.5361 35.627 18.6265 35.5586 18.7062C35.4919 18.786 35.4105 18.8543 35.3145 18.9113C35.2201 18.9666 35.1135 19.0098 34.9947 19.0407V19.0504C35.0533 19.0765 35.1037 19.1066 35.146 19.1408C35.19 19.1733 35.2315 19.2124 35.2705 19.258C35.3096 19.3035 35.3478 19.3556 35.3853 19.4142C35.4243 19.4712 35.4675 19.5379 35.5147 19.6144L36.1714 20.6667ZM34.0718 17.5368V18.8063H34.6284C34.731 18.8063 34.8254 18.7908 34.9117 18.7599C34.9995 18.729 35.0752 18.685 35.1387 18.6281C35.2022 18.5695 35.2518 18.4987 35.2876 18.4157C35.3234 18.331 35.3413 18.2366 35.3413 18.1325C35.3413 17.9453 35.2803 17.7996 35.1582 17.6955C35.0378 17.5897 34.8628 17.5368 34.6333 17.5368H34.0718ZM40.7576 17.1657L39.6028 19.3727V20.6667H39.1926V19.3825L38.0671 17.1657H38.5334L39.3171 18.7477C39.3269 18.7672 39.3554 18.8389 39.4026 18.9626H39.4099C39.4262 18.9072 39.4571 18.8356 39.5027 18.7477L40.323 17.1657H40.7576Z" fill="white"/>
<path d="M13.4099 13H13.0022V10.6514C13.0022 10.4658 13.0136 10.2388 13.0364 9.97021H13.0266C12.9875 10.1281 12.9525 10.2412 12.9216 10.3096L11.7253 13H11.5251L10.3313 10.3291C10.2971 10.251 10.2621 10.1313 10.2263 9.97021H10.2165C10.2296 10.1102 10.2361 10.3389 10.2361 10.6562V13H9.84056V9.49902H10.3826L11.4568 11.9404C11.5398 12.1276 11.5935 12.2676 11.6179 12.3604H11.6326C11.7025 12.1683 11.7587 12.0251 11.801 11.9307L12.8972 9.49902H13.4099V13ZM17.0177 13H16.5636L16.1925 12.0186H14.7081L14.359 13H13.9025L15.2452 9.49902H15.67L17.0177 13ZM16.0582 11.6499L15.5089 10.1582C15.491 10.1094 15.4731 10.0312 15.4552 9.92383H15.4454C15.4292 10.0231 15.4104 10.1012 15.3893 10.1582L14.8449 11.6499H16.0582ZM19.9273 13H19.4268L18.6211 11.6597C18.5967 11.619 18.5699 11.5612 18.5406 11.4863H18.5308C18.5145 11.5238 18.4868 11.5815 18.4478 11.6597L17.6177 13H17.1148L18.2867 11.2397L17.2076 9.49902H17.7105L18.4258 10.7295C18.473 10.8109 18.5145 10.8923 18.5503 10.9736H18.5601C18.6122 10.8662 18.6577 10.7816 18.6968 10.7197L19.4414 9.49902H19.9126L18.8116 11.2349L19.9273 13ZM21.618 12.8584V12.375C21.6733 12.4238 21.7393 12.4678 21.8158 12.5068C21.8939 12.5459 21.9753 12.5793 22.0599 12.6069C22.1462 12.633 22.2324 12.6533 22.3187 12.668C22.4049 12.6826 22.4847 12.6899 22.5579 12.6899C22.8102 12.6899 22.9982 12.6436 23.1219 12.5508C23.2472 12.4564 23.3099 12.3213 23.3099 12.1455C23.3099 12.0511 23.2887 11.9689 23.2464 11.8989C23.2057 11.8289 23.1488 11.7655 23.0755 11.7085C23.0023 11.6499 22.9152 11.5946 22.8143 11.5425C22.715 11.4888 22.6076 11.4326 22.492 11.374C22.37 11.3122 22.256 11.2495 22.1502 11.186C22.0444 11.1226 21.9525 11.0526 21.8743 10.9761C21.7962 10.8996 21.7344 10.8133 21.6888 10.7173C21.6449 10.6196 21.6229 10.5057 21.6229 10.3755C21.6229 10.216 21.6579 10.0776 21.7279 9.96045C21.7979 9.84163 21.8898 9.74398 22.0037 9.66748C22.1177 9.59098 22.2471 9.53402 22.3919 9.49658C22.5384 9.45915 22.6873 9.44043 22.8387 9.44043C23.1838 9.44043 23.4352 9.48193 23.5931 9.56494V10.0264C23.3864 9.88314 23.1211 9.81152 22.7972 9.81152C22.7077 9.81152 22.6182 9.82129 22.5286 9.84082C22.4391 9.85872 22.3594 9.88883 22.2894 9.93115C22.2194 9.97347 22.1624 10.028 22.1185 10.0947C22.0745 10.1615 22.0526 10.2428 22.0526 10.3389C22.0526 10.4284 22.0688 10.5057 22.1014 10.5708C22.1356 10.6359 22.1852 10.6953 22.2503 10.749C22.3154 10.8027 22.3944 10.8548 22.4871 10.9053C22.5815 10.9557 22.6898 11.0111 22.8118 11.0713C22.9372 11.1331 23.056 11.1982 23.1683 11.2666C23.2806 11.335 23.3791 11.4106 23.4637 11.4937C23.5483 11.5767 23.6151 11.6686 23.6639 11.7695C23.7144 11.8704 23.7396 11.986 23.7396 12.1162C23.7396 12.2887 23.7054 12.4352 23.637 12.5557C23.5703 12.6745 23.4792 12.7713 23.3636 12.8462C23.2497 12.9211 23.1178 12.9748 22.9681 13.0073C22.8184 13.0415 22.6605 13.0586 22.4945 13.0586C22.4391 13.0586 22.3708 13.0537 22.2894 13.0439C22.208 13.0358 22.125 13.0228 22.0404 13.0049C21.9557 12.9886 21.8752 12.9683 21.7987 12.9438C21.7238 12.9178 21.6636 12.8893 21.618 12.8584ZM27.1228 13H26.6687L26.2976 12.0186H24.8132L24.4641 13H24.0075L25.3503 9.49902H25.7751L27.1228 13ZM26.1633 11.6499L25.614 10.1582C25.5961 10.1094 25.5782 10.0312 25.5603 9.92383H25.5505C25.5342 10.0231 25.5155 10.1012 25.4944 10.1582L24.9499 11.6499H26.1633ZM29.3927 9.87012H28.0255V11.0811H29.2902V11.4497H28.0255V13H27.6154V9.49902H29.3927V9.87012ZM31.8872 13H30.0318V9.49902H31.8091V9.87012H30.4419V11.0347H31.7066V11.4033H30.4419V12.6289H31.8872V13ZM34.6064 9.87012H33.5956V13H33.1855V9.87012H32.1772V9.49902H34.6064V9.87012ZM37.5062 9.49902L36.3514 11.7061V13H35.9412V11.7158L34.8158 9.49902H35.2821L36.0658 11.0811C36.0755 11.1006 36.104 11.1722 36.1512 11.2959H36.1585C36.1748 11.2406 36.2057 11.1689 36.2513 11.0811L37.0716 9.49902H37.5062Z" fill="#3C3636"/>
</svg>
