<svg width="15" height="15" viewBox="0 0 15 15" fill="none" xmlns="http://www.w3.org/2000/svg">
<path d="M2.08569 3.08578V4.67157C2.08569 4.93679 1.98034 5.19114 1.7928 5.37868L0.7928 6.37868C0.402276 6.7692 0.402275 7.40237 0.7928 7.79289L1.7928 8.79289C1.98034 8.98043 2.08569 9.23478 2.08569 9.5V11.0858C2.08569 11.6381 2.53341 12.0858 3.08569 12.0858H4.67148C4.9367 12.0858 5.19105 12.1911 5.37859 12.3787L6.37859 13.3787C6.76911 13.7692 7.40228 13.7692 7.7928 13.3787L8.7928 12.3787C8.98034 12.1911 9.23469 12.0858 9.49991 12.0858H11.0857C11.638 12.0858 12.0857 11.6381 12.0857 11.0858V9.5C12.0857 9.23478 12.191 8.98043 12.3786 8.79289L13.3786 7.79289C13.7691 7.40237 13.7691 6.7692 13.3786 6.37868L12.3786 5.37868C12.1911 5.19114 12.0857 4.93679 12.0857 4.67157V3.08578C12.0857 2.5335 11.638 2.08578 11.0857 2.08578H9.49991C9.23469 2.08578 8.98034 1.98043 8.7928 1.79289L7.7928 0.792892C7.40228 0.402368 6.76911 0.402367 6.37859 0.792891L5.37859 1.79289C5.19105 1.98043 4.9367 2.08578 4.67148 2.08578H3.08569C2.53341 2.08578 2.08569 2.5335 2.08569 3.08578Z" stroke="#1A30F3"/>
<line x1="3.73214" y1="9.73223" x2="9.73214" y2="3.73223" stroke="#1A30F3"/>
<circle cx="4.58569" cy="5.58578" r="0.5" fill="#1A30F3"/>
<circle cx="8.58569" cy="8.58578" r="0.5" fill="#1A30F3"/>
</svg>
